<svg xmlns="http://www.w3.org/2000/svg" viewBox="0 0 512 512" xmlns:v="https://vecta.io/nano"><path d="M512 256c0 141.385-114.615 256-256 256-86.246 0-162.534-42.653-208.917-108-14.566-20.522-26.185-43.3-34.22-67.678C4.514 311.056 0 284.056 0 256 0 114.615 114.615 0 256 0c60.562 0 116.203 21.023 160.037 56.184 8.955 7.178 17.418 14.942 25.328 23.25C485.136 125.356 512 187.55 512 256z" fill="#2b2a2c"/><path d="M501.614 235.26c-2.08-28.745-19.75-49.8-47.376-57.417-21.483-5.914-43.018-4.462-64.554-.627-20.773 3.7-40.28 11.118-59.82 21.797.543-2.926.752-4.775 1.243-6.54 6.928-24.92 19.895-46.52 36.697-65.923 20.135-23.26 43.415-40.93 73.56-47.114 3.584-.742 7.272-1.317 11.055-1.714 12.1-1.285 24.2-4.263 31.514-15.924 4.765-7.596 2.978-11.786-6.08-12.643-6.53-.627-13.24-1.087-19.728-.387-14.4 1.546-28.432 4.023-42.088 7.42-41.994 10.44-80.468 29.56-115.388 57.083-26.645 21.002-47.438 46.926-61.24 76.936-10.167-6.478-19.655-13.845-30.23-18.975-21.232-10.313-44.283-13.02-67.647-12.852-28.84.2-56.978 3.657-82.066 19.623-31.493 20.04-38.097 62.506-12.957 90.04 8.892 9.738 20.187 17.596 31.326 24.88 14.66 9.592 30.407 17.502 45.36 26.666 8.704 5.33 15.872 12.622 17.732 23.207 4.744 27.073-23.134 54.345-48.964 50.176-5.12-12.267-8.944-24.18-14.87-34.92-8.735-15.83-22.528-25.192-41.085-26.843-8.547-.752-16.833 1.087-23.144 5.1 8.035 24.388 19.655 47.156 34.22 67.678 28.693 6.332 57.898 6.96 86.998 4.357 15.15-1.348 30.46-4.524 44.9-9.3 22.6-7.46 39.267-22.3 46.54-45.923 1.254-4.044 1.964-8.255 3.24-13.7l4.43 8.662c1.463 2.8 2.82 5.695 4.493 8.37 22.507 35.965 56.78 50.75 97.426 52.788 37.867 1.912 70.468-12.83 100.28-34.7 47-34.506 70.468-80.387 66.226-139.267zM218.718 291.4c-18.892-23.552-48.38-29.853-74.428-42.34-7.2-3.46-14.326-7.335-20.92-11.84-21.912-14.984-14.378-45.934 2.832-55.557 8.704-4.87 20.156-8.108 30.083-7.105.648 6.938.982 13.97 1.985 20.908 4.974 34.388 35.36 50.698 66.006 35.432l-5.56 60.5zM401.2 325.8c-6.3 21.744-15.56 42.088-33.228 57.334-18.317 15.788-35.38 13.876-49.925-5.392-11.212-14.848-18.244-38.954-17.9-61.367.637-30.25 8.495-57.793 30.542-79.767 9.216-9.185 20.02-15.653 33.593-15.485 17.502.2 31.336 10.052 37.825 27.178 9.802 25.892 6.52 51.857-.897 77.5z" fill="#8d8d8e"/></svg>