<svg xmlns="http://www.w3.org/2000/svg" viewBox="0 0 112.196 112.196"><circle cx="56.098" cy="56.098" r="56.098" fill="#f26798"/><path d="M56.097 20.472c-19.67 0-35.67 15.983-35.67 35.627s16.002 35.626 35.67 35.626S91.77 75.744 91.77 56.1 75.767 20.472 56.097 20.472zM79.57 37.287c4.07 5.043 6.542 11.412 6.656 18.352-1.354-.278-7.088-1.347-13.94-1.347-2.21 0-4.538.11-6.87.4l-.6-1.438c-.605-1.423-1.257-2.835-1.932-4.226 10.546-4.345 15.633-10.375 16.688-11.74zM56.097 26.05a30.03 30.03 0 0 1 19.856 7.475c-.84 1.146-5.396 6.84-15.565 10.683-4.707-8.604-9.86-15.73-11.085-17.383 2.185-.506 4.46-.775 6.794-.775zm-12.945 2.92c1.04 1.43 6.2 8.632 11.027 17.167-12.957 3.406-24.463 3.628-27.24 3.628h-.295C28.64 40.57 34.85 32.93 43.152 28.97zM25.96 56.146c0-.248.004-.496.012-.743l.79.002c3.74 0 16.722-.31 30.1-4.28a101.12 101.12 0 0 1 2.304 4.811l-1.002.302c-15.063 4.865-23.342 17.744-24.616 19.85-4.72-5.318-7.59-12.3-7.59-19.942zM56.097 86.24a30.01 30.01 0 0 1-18.381-6.266c.86-1.688 7.1-12.94 23.617-18.684.01-.004.02-.008.033-.01 4.14 10.776 5.892 19.82 6.373 22.623a29.97 29.97 0 0 1-11.642 2.338zm17.07-5.305c-.404-2.32-2.028-10.795-5.776-21.133 2.102-.327 4.147-.456 6.065-.456 6.3 0 11.226 1.38 12.37 1.73-1.36 8.21-6.06 15.313-12.66 19.86z" fill="#f1f2f2"/></svg>