<svg xmlns="http://www.w3.org/2000/svg" viewBox="0 0 512 512"><circle cx="256" cy="256" r="256" fill="#ef72ad"/><path d="M256 0a258.53 258.53 0 0 0-33.391 2.167C348.216 18.53 445.217 125.933 445.217 256s-97.002 237.47-222.61 253.833C233.54 511.256 244.683 512 256 512c141.385 0 256-114.616 256-256S397.385 0 256 0z" fill="#ee539e"/><g fill="#fff"><path d="M350.84 91.826H161.16c-38.23 0-69.334 31.103-69.334 69.334v189.682c0 38.23 31.103 69.334 69.334 69.334h189.682c38.23 0 69.334-31.103 69.334-69.334V161.16c-.002-38.23-31.105-69.334-69.336-69.334zm52.638 259.014c0 29.025-23.613 52.638-52.638 52.638H161.16c-29.025 0-52.638-23.613-52.638-52.638V161.16c0-29.025 23.613-52.638 52.638-52.638h189.682c29.025 0 52.638 23.613 52.638 52.638l-.002 189.68zM256 169.74c-47.565 0-86.26 38.696-86.26 86.26s38.696 86.26 86.26 86.26 86.26-38.696 86.26-86.26-38.696-86.26-86.26-86.26zm0 155.826c-38.358 0-69.565-31.208-69.565-69.565s31.208-69.565 69.565-69.565 69.565 31.208 69.565 69.565-31.207 69.565-69.565 69.565z"/><circle cx="345.043" cy="155.826" r="22.261"/></g></svg>