<svg xmlns="http://www.w3.org/2000/svg" viewBox="0 0 112.198 112.198"><circle cx="56.099" cy="56.1" r="56.098" fill="#cb2027"/><path d="M60.627 75.122c-4.24-.328-6.023-2.43-9.35-4.45-1.828 9.59-4.062 18.785-10.68 23.588-2.045-14.496 2.998-25.384 5.34-36.94-3.992-6.72.48-20.246 8.9-16.913 10.363 4.098-8.972 24.987 4.008 27.596 13.55 2.724 19.083-23.513 10.68-32.047-12.142-12.32-35.343-.28-32.5 17.358.695 4.312 5.15 5.62 1.78 11.57-7.77-1.72-10.09-7.85-9.79-16.02.48-13.375 12.018-22.74 23.6-24.036 14.635-1.638 28.37 5.374 30.267 19.14 2.133 15.537-6.607 32.363-22.255 31.155z" fill="#f1f2f2"/></svg>