<svg xmlns="http://www.w3.org/2000/svg" viewBox="0 0 112.196 112.196"><circle cx="56.098" cy="56.098" r="56.098" fill="#4d76a1"/><path d="M53.98 80.702h4.403s1.33-.146 2.01-.878c.625-.672.605-1.934.605-1.934s-.086-5.908 2.656-6.778c2.703-.857 6.174 5.7 9.853 8.235 2.782 1.91 4.896 1.492 4.896 1.492l9.837-.137s5.146-.317 2.706-4.363c-.2-.33-1.42-2.993-7.314-8.463-6.168-5.725-5.342-4.8 2.088-14.702 4.525-6.03 6.334-9.713 5.77-11.3-.54-1.502-3.867-1.105-3.867-1.105l-11.076.07s-.82-.112-1.43.252c-.595.357-.978 1.19-.978 1.19s-1.753 4.667-4.09 8.636c-4.932 8.375-6.904 8.817-7.7 8.297-1.875-1.212-1.407-4.87-1.407-7.467 0-8.116 1.23-11.5-2.397-12.376-1.204-.29-2.1-.483-5.17-.514-3.952-.04-7.297.012-9.19.94-1.26.617-2.232 1.992-1.64 2.07.732.098 2.4.447 3.27 1.644 1.135 1.544 1.095 5.012 1.095 5.012s.652 9.554-1.523 10.74c-1.493.814-3.54-.848-7.938-8.446-2.253-3.892-3.954-8.194-3.954-8.194s-.328-.804-.913-1.234c-.7-.52-1.702-.687-1.702-.687l-10.525.07s-1.58.044-2.16.73c-.516.61-.04 1.875-.04 1.875s8.24 19.278 17.57 28.993c8.555 8.907 18.27 8.322 18.27 8.322z" fill-rule="evenodd" fill="#fff"/></svg>